<?xml version="1.0" standalone="no"?>
<!DOCTYPE svg PUBLIC "-//W3C//DTD SVG 20010904//EN"
 "http://www.w3.org/TR/2001/REC-SVG-20010904/DTD/svg10.dtd">
<svg version="1.0" xmlns="http://www.w3.org/2000/svg"
 width="460.000000pt" height="460.000000pt" viewBox="0 0 460.000000 460.000000"
 preserveAspectRatio="xMidYMid meet">

<g transform="translate(0.000000,460.000000) scale(0.100000,-0.100000)"
fill="#000000" stroke="none">
<path d="M3722 2673 c-14 -12 -27 -49 -42 -115 l-21 -97 -37 22 c-48 29 -179
31 -230 4 -46 -25 -107 -88 -134 -139 -29 -56 -32 -195 -5 -245 61 -115 182
-175 292 -144 34 9 41 8 57 -9 44 -47 127 -29 147 32 8 27 44 194 68 318 10
50 36 176 45 215 23 101 22 122 -5 149 -32 32 -103 36 -135 9z m-159 -344 c51
-23 72 -101 42 -159 -45 -87 -164 -78 -195 15 -19 58 10 129 60 148 25 9 68 8
93 -4z"/>
<path d="M1630 2659 c-52 -4 -120 -12 -150 -18 -30 -6 -91 -15 -135 -21 -86
-11 -115 -30 -115 -75 0 -35 21 -85 36 -85 30 0 64 -25 73 -54 6 -17 13 -53
17 -81 24 -184 75 -295 153 -335 82 -42 146 -52 289 -48 252 8 322 62 382 296
12 46 23 104 25 129 4 55 12 64 68 70 55 7 87 -19 87 -70 0 -60 36 -201 68
-262 37 -73 70 -104 142 -136 51 -22 68 -24 215 -24 147 0 164 2 215 24 30 13
65 33 76 43 51 45 94 160 114 303 6 39 15 82 21 96 10 25 45 49 73 49 18 0 26
22 26 74 0 62 -14 74 -100 85 -41 5 -115 17 -165 26 -116 21 -347 22 -430 2
-97 -24 -164 -47 -170 -57 -16 -26 -61 -38 -112 -30 -29 5 -77 5 -105 0 -48
-7 -57 -6 -98 19 -112 68 -284 96 -500 80z m-285 -89 c3 -6 -1 -13 -10 -16
-19 -8 -30 0 -20 15 8 14 22 14 30 1z m1893 -8 c2 -7 -6 -12 -17 -12 -21 0
-27 11 -14 24 9 9 26 2 31 -12z m-1275 -17 c68 -18 111 -47 128 -87 18 -45 6
-210 -21 -283 -44 -119 -112 -155 -295 -155 -96 0 -177 14 -223 39 -71 38
-123 258 -91 386 15 61 60 93 152 111 88 17 267 11 350 -11z m1012 4 c116 -33
147 -120 110 -314 -26 -135 -53 -172 -148 -200 -61 -18 -210 -20 -292 -3 -113
22 -172 122 -182 309 -5 73 -2 91 15 126 25 47 82 77 183 92 77 12 258 6 314
-10z m-1632 -44 c1 -5 -6 -11 -15 -13 -11 -2 -18 3 -18 13 0 17 30 18 33 0z
m1892 5 c3 -6 -1 -13 -10 -16 -19 -8 -30 0 -20 15 8 14 22 14 30 1z"/>
<path d="M1043 2513 c-44 -9 -63 -49 -64 -132 -1 -42 -4 -100 -7 -129 l-7 -53
-80 96 c-90 109 -111 125 -157 125 -70 0 -107 -56 -109 -162 -1 -35 -4 -87 -7
-117 l-7 -53 -65 82 c-106 134 -118 147 -151 154 -38 7 -91 -14 -113 -45 -38
-55 -15 -100 159 -304 28 -33 63 -77 78 -98 39 -52 79 -70 140 -64 39 3 56 11
85 40 35 36 36 37 42 142 4 58 10 108 12 111 3 3 29 -24 57 -60 80 -100 103
-116 166 -116 46 0 59 5 90 31 20 18 39 46 44 67 5 21 12 125 16 233 7 196 7
196 -17 222 -23 27 -64 39 -105 30z"/>
<path d="M3882 2382 c-37 -33 -41 -60 -22 -157 62 -312 62 -312 51 -334 -18
-33 -64 -51 -134 -51 -82 0 -117 -27 -117 -89 0 -95 143 -131 277 -70 54 24
96 61 132 114 27 39 173 246 219 309 53 74 62 92 62 133 0 33 -5 46 -26 62
-28 22 -74 27 -102 12 -10 -5 -49 -55 -87 -112 l-69 -102 -13 99 c-18 146 -22
162 -45 184 -28 26 -97 27 -126 2z"/>
<path d="M2020 1705 c0 -33 -4 -45 -14 -45 -8 0 -18 5 -21 10 -9 15 -25 12
-25 -4 0 -30 64 -35 80 -7 16 31 13 91 -5 91 -11 0 -15 -12 -15 -45z"/>
<path d="M2150 1695 l0 -55 40 0 c22 0 40 5 40 10 0 6 -13 10 -30 10 -39 0
-41 27 -2 33 l27 4 -27 2 c-40 2 -37 31 2 31 17 0 30 5 30 10 0 6 -18 10 -40
10 l-40 0 0 -55z"/>
<path d="M2333 1724 c-15 -24 -15 -29 -2 -53 29 -51 109 -33 109 24 0 56 -76
76 -107 29z m76 -13 c13 -24 -8 -55 -35 -49 -20 3 -30 29 -20 54 8 20 43 17
55 -5z"/>
<path d="M2540 1695 c0 -30 5 -55 10 -55 6 0 10 15 10 33 l1 32 27 -33 c15
-18 30 -32 35 -32 4 0 7 25 7 55 0 30 -4 55 -10 55 -5 0 -10 -15 -10 -32 l0
-33 -26 33 c-14 17 -30 32 -35 32 -5 0 -9 -25 -9 -55z"/>
</g>
</svg>
